<svg width="33" height="32" viewBox="0 0 33 32" fill="none" xmlns="http://www.w3.org/2000/svg">
<rect x="0.00292969" width="32" height="32" rx="12" fill="#FDE047"/>
<path fill-rule="evenodd" clip-rule="evenodd" d="M18.5699 9.66734C18.9906 9.66734 19.4106 9.72668 19.8099 9.86068C22.2706 10.6607 23.1572 13.3607 22.4166 15.7207C21.9966 16.9267 21.3099 18.0273 20.4106 18.9267C19.1232 20.1733 17.7106 21.28 16.1899 22.2333L16.0232 22.334L15.8499 22.2267C14.3239 21.28 12.9032 20.1733 11.6039 18.92C10.7106 18.0207 10.0232 16.9267 9.59656 15.7207C8.84323 13.3607 9.72989 10.6607 12.2172 9.84668C12.4106 9.78001 12.6099 9.73334 12.8099 9.70734H12.8899C13.0772 9.68001 13.2632 9.66734 13.4499 9.66734H13.5232C13.9432 9.68001 14.3499 9.75334 14.7439 9.88734H14.7832C14.8099 9.90001 14.8299 9.91401 14.8432 9.92668C14.9906 9.97401 15.1299 10.0273 15.2632 10.1007L15.5166 10.214C15.5778 10.2467 15.6465 10.2965 15.7059 10.3397C15.7435 10.367 15.7774 10.3916 15.8032 10.4073C15.8141 10.4138 15.8252 10.4202 15.8363 10.4267C15.8935 10.4601 15.953 10.4949 16.0032 10.5333C16.7439 9.96734 17.6432 9.66068 18.5699 9.66734ZM20.3446 14.4675C20.6179 14.4602 20.8513 14.2408 20.8713 13.9602V13.8808C20.8913 12.9468 20.3253 12.1008 19.4646 11.7742C19.1913 11.6802 18.8913 11.8275 18.7913 12.1075C18.6979 12.3875 18.8446 12.6942 19.1246 12.7935C19.5519 12.9535 19.8379 13.3742 19.8379 13.8402V13.8608C19.8253 14.0135 19.8713 14.1608 19.9646 14.2742C20.0579 14.3875 20.1979 14.4535 20.3446 14.4675Z" fill="white"/>
</svg>
